<?xml version="1.0" ?><!DOCTYPE svg  PUBLIC '-//W3C//DTD SVG 1.1//EN'  'http://www.w3.org/Graphics/SVG/1.1/DTD/svg11.dtd'><svg enable-background="new 0 0 512 512" height="512px" id="monster" version="1.1" viewBox="0 0 512 512" width="512px" xml:space="preserve" xmlns="http://www.w3.org/2000/svg" xmlns:xlink="http://www.w3.org/1999/xlink"><g><path d="M224.74561,468.06445c-4.86523-31.3877-0.89063-147.69092-0.89063-147.69092h-35.79053   c5.79785,44.79004,23.09326,119.84717,28.49951,142.81299c-21.9834-12.70703-45.59717-11.36475-45.59717-11.36475   c14.28809,2.50146,20.71875,10.36182,20.71875,10.36182c-18.5752-11.07568-38.57715-8.21826-38.57715-8.21826   c11.78857,1.0752,22.02637,10.72314,22.02637,10.72314s-29.14209-17.50439-35.45996,0   c-6.31641,17.50391,7.04541,18.82715,7.04541,18.82715h79.4126c0,0,8.41406,0,20.5625,0   C257.68311,483.51563,244.104,479.20801,224.74561,468.06445z" fill="#E5273A"/><path d="M283.45508,468.06445c4.86182-31.3877,0.89111-147.69092,0.89111-147.69092h35.78906   c-5.79688,44.79004-23.09277,119.84717-28.49951,142.81299c21.98242-12.70703,45.5957-11.36475,45.5957-11.36475   c-14.28516,2.50146-20.71582,10.36182-20.71582,10.36182c18.57373-11.07568,38.57813-8.21826,38.57813-8.21826   c-11.78711,1.0752-22.02832,10.72314-22.02832,10.72314s29.14355-17.50439,35.45947,0   c6.31885,17.50391-7.0459,18.82715-7.0459,18.82715h-79.41113c0,0-8.41406,0-20.5625,0   C250.5166,483.51563,264.09619,479.20801,283.45508,468.06445z" fill="#E5273A"/><path d="M437.27051,252.5249c-9.46094-96.31348-86.63477-149.97705-86.63477-149.97705h-0.00391   c-25.31787-20.20313-46.18896-26.22168-39.73242-25.84326c14.61621,0.86182,61.05127,10.32471,36.97217-7.74121   c-24.07813-18.05859-69.64697-7.73535-69.64697-7.73535s77.38721-30.95605,34.39014-32.6748   c-42.99756-1.7168-55.8877,29.23584-55.8877,29.23584s-12.89844-30.95264-55.89941-29.23584   c-42.99414,1.71875,34.39941,32.6748,34.39941,32.6748s-45.57764-10.32324-69.65234,7.73535   c-24.08008,18.06592,22.35303,8.60303,36.9751,7.74121c6.45459-0.37842-14.41943,5.64014-39.73975,25.84766v-0.00439   c0,0-61.7627,43.34375-84.11768,117.30127c-11.7251,38.7915-0.54492,41.83496,13.24512,32.37842   c0,0-33.0249,118.10791,17.7085,118.10791c3.84717,0,7.64502-0.646,11.37354-1.72314   c38.90771,51.68506,106.07959,52.91943,135.70752,52.91943c29.42725,0,95.89502-1.23926,134.91064-51.93115   c45.77686-7.95703,27.61768-69.87012,27.61768-69.87012C432.05322,304.30225,441.30127,293.57031,437.27051,252.5249z" fill="#E5273A"/><g><g id="XMLID_124_"><g><path d="M297.76221,248.09814c17.90723-37.58887,73.61816-5.05469,55.87256,32.26514      c-13.12109,27.479-35.16895,45.76221-60.22803,54.74268v-0.05371c-0.43018-2.15088-1.07568-4.19434-1.82861-6.18408      c-5.59229-14.19678-19.4126-24.19873-35.59912-24.19873c-16.18604,0-30.00635,10.00195-35.59912,24.19873      c-0.80664,2.04346-1.45166,4.14063-1.88184,6.3457c-25.00537-8.92676-47.10693-27.10303-60.17432-54.63574      c-17.7998-37.31982,37.80371-70.22998,55.65723-32.6416C232.64063,287.08496,279.04883,287.46143,297.76221,248.09814z" fill="#1D1D1B"/><path d="M291.57813,328.86816c0,0-12.69092,6.3457-35.65283,6.3457c-22.9082,0-35.54541-6.3457-35.54541-6.3457      c5.59277-14.19678,19.41309-24.19873,35.59912-24.19873C272.16553,304.66943,285.98584,314.67139,291.57813,328.86816z" fill="#F43E14"/><path d="M293.40674,335.10596c-24.0376,8.604-50.81738,8.65771-74.90869,0.10791      c0.43018-2.20508,1.0752-4.30225,1.88184-6.3457c0,0,12.63721,6.3457,35.54541,6.3457      c22.96191,0,35.65283-6.3457,35.65283-6.3457c0.75293,1.98975,1.39844,4.0332,1.82861,6.18408V335.10596z" fill="#B7240B"/></g></g></g><g><g id="XMLID_125_"><g><path d="M325.6333,158.68799c0,38.46973-31.16992,69.63916-69.61035,69.63916      c-38.49854,0-69.63916-31.16943-69.63916-69.63916c0-36.03613,27.37451-65.69971,62.51318-69.2627      c1.1875-0.11572,2.34619-0.20264,3.53369-0.26074c1.18799-0.05811,2.37549-0.08691,3.59229-0.08691      s2.4043,0.02881,3.5918,0.08691c1.18799,0.05811,2.34668,0.14502,3.53418,0.26074      C298.22949,92.98828,325.6333,122.65186,325.6333,158.68799z M296.72314,158.68799      c0-22.4502-18.27881-40.67139-40.7002-40.67139c-22.4502,0-40.67139,18.22119-40.67139,40.67139      c0,22.47949,18.22119,40.67139,40.67139,40.67139C278.44434,199.35938,296.72314,181.16748,296.72314,158.68799z" fill="#FFFFFF"/><path d="M178.5332,166.56738c0-40.38135,30.90918-73.5791,70.36377-77.14209      c-35.13867,3.56299-62.51318,33.22656-62.51318,69.2627c0,38.46973,31.14063,69.63916,69.63916,69.63916      c38.44043,0,69.61035-31.16943,69.61035-69.63916c0-36.03613-27.40381-65.69971-62.48438-69.2627      c39.48389,3.56299,70.39258,36.76074,70.39258,77.14209c0,42.81494-34.70361,77.51855-77.51855,77.51855      S178.5332,209.38232,178.5332,166.56738z" fill="#1D1D1B"/><path d="M256.02295,118.0166c22.42139,0,40.7002,18.22119,40.7002,40.67139      c0,22.47949-18.27881,40.67139-40.7002,40.67139c-22.4502,0-40.67139-18.19189-40.67139-40.67139      C215.35156,136.23779,233.57275,118.0166,256.02295,118.0166z M273.51953,158.68799      c0-9.64648-7.8501-17.46777-17.49658-17.46777s-17.46777,7.82129-17.46777,17.46777      c0,9.67529,7.82129,17.49658,17.46777,17.49658S273.51953,168.36328,273.51953,158.68799z" fill="#20A8CE"/><path d="M256.02295,141.22021c9.64648,0,17.49658,7.82129,17.49658,17.46777      c0,9.67529-7.8501,17.49658-17.49658,17.49658s-17.46777-7.82129-17.46777-17.49658      C238.55518,149.0415,246.37646,141.22021,256.02295,141.22021z" fill="#022A33"/></g></g><path d="M247.26172,128.3457c5.67041,4.45898,5.30664,14.38867-0.81689,22.1792    c-6.12842,7.78125-15.69141,10.47656-21.36328,6.01367c-5.67188-4.46582-5.30225-14.38867,0.82031-22.1792    C232.02832,126.57813,241.59277,123.88281,247.26172,128.3457z" fill="#FFFFFF"/></g></g></svg>