<?xml version="1.0" ?><!DOCTYPE svg  PUBLIC '-//W3C//DTD SVG 1.1//EN'  'http://www.w3.org/Graphics/SVG/1.1/DTD/svg11.dtd'><svg enable-background="new 0 0 512 512" height="512px" id="monster" version="1.1" viewBox="0 0 512 512" width="512px" xml:space="preserve" xmlns="http://www.w3.org/2000/svg" xmlns:xlink="http://www.w3.org/1999/xlink"><g><linearGradient gradientUnits="userSpaceOnUse" id="SVGID_1_" x1="87.04932" x2="163.55029" y1="319.89844" y2="319.89844"><stop offset="0.09524" style="stop-color:#60A831"/><stop offset="0.15476" style="stop-color:#60A831"/></linearGradient><path d="M144.17285,387.34082l1.17383,3.09814l-6.31787,2.87256l-3.11816,1.41309l-3.95996,1.85742   l-7.91846,3.70752l-5.40088,2.40186l-4.01953-3.6377l-5.81689-5.10742l-6.03125-5.26172l-3.43799-3.17725l0.87793-3.66992   l0.23438-0.98828l0.32959-1.57861l0.66064-3.17969l2.65039-12.6875l5.29688-25.37012l5.29492-25.37402l2.646-12.68701   l1.32373-6.34326l0.33496-1.58496l0.16455-0.79492c0.03076-0.16602,0.0415-0.19336,0.05176-0.22412l0.03467-0.10693   l0.27002-0.79688l0.62549-0.52539l0.15186-0.12549l0.49658-0.50537l1.05713-1.09229l4.24268-4.38965l8.48438-8.771   l16.97314-17.53809c25.70361-26.57764,5.66064-44.43945-17.79004-15.86035l-15.4751,18.88574l-7.74023,9.43066l-3.86768,4.71484   l-0.97021,1.18262l-1.37939,1.64355l-3.43066,4.03271l-0.79297,5.57764l-0.2749,2.07227l-0.19971,1.60889l-0.80322,6.42822   l-1.60254,12.86572L94,335.47656l-3.20068,25.72217l-1.60107,12.86279l-0.40283,3.21826l-0.50195,3.81787l-1.24414,9.09668   l9.02344,6.8291l6.43945,4.74756l6.64746,4.91748l8.44629,6.36426l10.10791-5.65088l7.59131-4.34277l17.63525-9.95752   l-2.36572-4.896C132.55225,351.26465,132.26514,356.73682,144.17285,387.34082z" fill="url(#SVGID_1_)"/><linearGradient gradientUnits="userSpaceOnUse" id="SVGID_2_" x1="349.97412" x2="426.47363" y1="319.89844" y2="319.89844"><stop offset="0.09524" style="stop-color:#60A831"/><stop offset="0.15476" style="stop-color:#60A831"/></linearGradient><path d="M369.35205,387.34082l-1.1748,3.09814l6.32324,2.87256l3.11133,1.41309l3.95996,1.85742   l7.9248,3.70752l5.40039,2.40186l4.01465-3.6377l5.82275-5.10742l6.02686-5.26172l3.43604-3.17725l-0.87842-3.66992   l-0.22559-0.98828l-0.33398-1.57861l-0.66211-3.17969l-2.64844-12.6875l-5.29688-25.37012l-5.29639-25.37402l-2.646-12.68701   l-1.32666-6.34326l-0.32764-1.58496l-0.16455-0.79492c-0.02979-0.16602-0.04492-0.19336-0.05518-0.22412l-0.0332-0.10693   l-0.27051-0.79688l-0.63086-0.52539l-0.15186-0.12549l-0.48975-0.50537l-1.06689-1.09229l-4.23779-4.38965l-8.48584-8.771   l-16.97119-17.53809c-25.70557-26.57764-5.65723-44.43945,17.78906-15.86035l15.47705,18.88574l7.7373,9.43066l3.87109,4.71484   l0.96729,1.18262l1.38232,1.64355l3.42334,4.03271l0.80127,5.57764l0.2749,2.07227l0.20459,1.60889l0.79297,6.42822   l1.60742,12.86572l3.19873,25.72021l3.20117,25.72217l1.60596,12.86279l0.40039,3.21826l0.50146,3.81787l1.23975,9.09668   l-9.02539,6.8291l-6.4375,4.74756l-6.64014,4.91748l-8.44775,6.36426l-10.11133-5.65088l-7.59424-4.34277l-17.62891-9.95752   l2.36523-4.896C380.97461,351.26465,381.25879,356.73682,369.35205,387.34082z" fill="url(#SVGID_2_)"/><linearGradient gradientUnits="userSpaceOnUse" id="SVGID_3_" x1="153.55078" x2="252.84863" y1="415.59668" y2="415.59668"><stop offset="0.09524" style="stop-color:#60A831"/><stop offset="0.15476" style="stop-color:#60A831"/></linearGradient><path d="M230.0376,473.88574c-4.28955-27.67285-0.7832-130.19531-0.7832-130.19531h-31.5498   c5.10791,39.48389,20.35693,105.64795,25.11865,125.89502c-19.37598-11.20166-40.19189-10.01611-40.19189-10.01611   c12.59473,2.20166,18.2627,9.1333,18.2627,9.1333c-16.375-9.76416-34.00586-7.24902-34.00586-7.24902   c10.39063,0.95215,19.41406,9.45508,19.41406,9.45508s-25.68652-15.43018-31.25684,0   c-5.56787,15.42725,6.21094,16.59473,6.21094,16.59473h70.00391c0,0,7.41455,0,18.12598,0   C259.07129,487.50342,247.09912,483.70947,230.0376,473.88574z" fill="url(#SVGID_3_)"/><linearGradient gradientUnits="userSpaceOnUse" id="SVGID_4_" x1="258.97803" x2="358.27441" y1="415.59668" y2="415.59668"><stop offset="0.09524" style="stop-color:#60A831"/><stop offset="0.15476" style="stop-color:#60A831"/></linearGradient><path d="M281.79053,473.88574c4.28467-27.67285,0.78369-130.19531,0.78369-130.19531h31.54932   c-5.11035,39.48389-20.35547,105.64795-25.11963,125.89502c19.37451-11.20166,40.19043-10.01611,40.19043-10.01611   c-12.59131,2.20166-18.26123,9.1333-18.26123,9.1333c16.37402-9.76416,34.00781-7.24902,34.00781-7.24902   c-10.3916,0.95215-19.41895,9.45508-19.41895,9.45508s25.69141-15.43018,31.25781,0   c5.56738,15.42725-6.21191,16.59473-6.21191,16.59473h-69.99854c0,0-7.42041,0-18.12842,0   C252.75439,487.50342,264.72803,483.70947,281.79053,473.88574z" fill="url(#SVGID_4_)"/><linearGradient gradientUnits="userSpaceOnUse" id="SVGID_5_" x1="103.62598" x2="408.47455" y1="321.49707" y2="108.03981"><stop offset="0" style="stop-color:#60A831"/><stop offset="0.3697" style="stop-color:#93C021"/><stop offset="1" style="stop-color:#ACC811"/></linearGradient><path d="M424.56201,260.23486c-7.60303,3.7749-15.2998,6.95166-23.01953,9.56348   c1.00195-3.24512,1.91846-6.5332,2.74268-9.86328c8.74072-6.05615,17.20215-13.12305,25.13916-21.24072   c6.00098-6.16064,8.70752-10.58936,8.59668-12.06396c-0.13086-1.53223-3.06494-0.11621-8.93457,4.04297   c-7.03174,4.93164-14.24219,9.28027-21.56104,13.0752c0.56006-3.63135,1.05127-7.28564,1.39502-10.99463   c7.75342-7.38965,15.07422-15.72266,21.73389-25.01221c4.97705-6.99023,7.02197-11.78027,6.6709-13.22949   c-0.37744-1.49023-3.02686,0.36426-8.22119,5.36377c-6.21973,5.95947-12.70068,11.36377-19.38135,16.25684   c0.00439-0.33105,0.021-0.65576,0.021-0.98633c0-3.39307-0.11426-6.75342-0.29102-10.09326   c6.54883-8.49756,12.53369-17.85205,17.69531-28.09717c3.85303-7.69287,5.09668-12.75488,4.53662-14.13525   c-0.59424-1.42969-2.95117,0.8291-7.28027,6.58545c-5.18213,6.83203-10.75244,13.14844-16.58154,18.9834   c-0.53467-3.7124-1.19629-7.37207-1.94531-10.99756c5.11719-9.35107,9.53613-19.48145,12.97949-30.37012   c2.5752-8.21777,2.99023-13.43018,2.21289-14.70703c-0.82471-1.31299-2.7749,1.29053-6.12988,7.67725   c-3.97461,7.49414-8.41748,14.54492-13.19824,21.15723c-1.02783-3.36914-2.13477-6.7041-3.3457-9.98193   c3.53613-9.88916,6.26074-20.44043,7.90137-31.58252c1.22998-8.53467,0.79492-13.76416-0.18115-14.90283   c-1.02783-1.17139-2.5293,1.7251-4.81445,8.56934c-2.66064,7.87158-5.84668,15.38623-9.43018,22.51709   c-1.69434-3.51709-3.50049-6.95068-5.40039-10.31299c1.78369-10.1084,2.64941-20.72119,2.37354-31.73975   c-0.24854-8.63916-1.60791-13.72754-2.76904-14.69336c-1.21777-0.98193-2.18408,2.1377-3.25586,9.28906   c-1.23291,7.97803-2.99756,15.68604-5.23682,23.09668c-2.31641-3.29736-4.71973-6.5127-7.24854-9.61035   c-0.02637-9.91504-1.05078-20.17578-3.23389-30.61035c-1.80371-8.47754-4.09619-13.25439-5.4165-14.00049   c-1.39209-0.75684-1.76563,2.50488-1.50098,9.73486c0.22656,7.70557-0.12109,15.25195-0.93896,22.5918   c-2.97607-2.97217-6.07031-5.79199-9.24805-8.49756c-1.8125-9.28711-4.58496-18.70459-8.52637-28.08301   c-3.38379-8.01318-6.60547-12.27197-8.05029-12.75586c-1.51416-0.48486-1.23584,2.80322,0.41504,9.85596   c1.62061,7.09473,2.6582,14.13281,3.23682,21.07422c-3.40137-2.33203-6.90186-4.50049-10.47705-6.5332   c-3.39404-8.23877-7.65039-16.42627-13.00146-24.35449c-4.8999-7.21582-8.91748-10.76709-10.42822-10.95947   c-1.5957-0.17334-0.66504,2.99316,2.35156,9.58203c2.75586,6.17725,4.98633,12.3916,6.81396,18.60596   c-4.30371-1.85645-8.69336-3.50684-13.17285-4.94678c-4.71387-6.7417-10.13037-13.28564-16.44238-19.4082   c-6.28369-6.05615-10.93945-8.72803-12.46094-8.5918c-1.59375,0.16162-0.03857,3.0415,4.26318,8.90674   c3.60449,4.94775,6.78467,10.03516,9.63477,15.19971c-8.97266-1.80957-18.20215-2.80225-27.64404-2.80225   c-9.8457,0-19.45508,1.07129-28.77979,3.0249c2.87842-5.24023,6.10107-10.40137,9.75293-15.42236   c4.30273-5.86523,5.85986-8.74512,4.26465-8.90674c-1.52051-0.13623-6.17578,2.53564-12.45996,8.5918   c-6.4375,6.24951-11.95215,12.92969-16.72217,19.81689c-4.43701,1.46777-8.77881,3.15723-13.04004,5.04346   c1.84912-6.38037,4.12891-12.76709,6.96533-19.11133c3.01123-6.58887,3.94141-9.75537,2.34961-9.58203   c-1.51416,0.19238-5.53027,3.74365-10.43066,10.95947c-5.51709,8.17676-9.88574,16.62109-13.32813,25.10547   c-3.49219,2.04395-6.90186,4.23486-10.22412,6.55566c0.56104-7.19678,1.63232-14.48877,3.31006-21.84766   c1.65137-7.05273,1.92969-10.34082,0.41602-9.85596c-1.44629,0.48389-4.66797,4.74268-8.05176,12.75586   c-4.09668,9.74268-6.96338,19.53564-8.7666,29.17236c-3.06543,2.66748-6.05078,5.44141-8.91943,8.35498   c-0.896-7.63574-1.26123-15.49756-1.02686-23.53857c0.26611-7.22998-0.1084-10.4917-1.50098-9.73486   c-1.31934,0.74609-3.6123,5.52295-5.4165,14.00049c-2.27393,10.87598-3.26123,21.54639-3.20313,31.85303   c-2.41504,3.02148-4.73828,6.13477-6.96045,9.34473c-2.3877-7.71338-4.27002-15.74512-5.55518-24.07373   c-1.07178-7.15137-2.03955-10.271-3.25635-9.28906c-1.16162,0.96582-2.52051,6.0542-2.76807,14.69336   c-0.28955,11.49121,0.68848,22.5332,2.6377,33.03271c-1.81787,3.271-3.51221,6.63184-5.12695,10.04639   c-3.80127-7.43896-7.17627-15.2876-9.96924-23.54346c-2.28418-6.84424-3.78223-9.74072-4.81348-8.56934   c-0.97754,1.13867-1.41211,6.36816-0.18018,14.90283c1.71924,11.66211,4.63037,22.67139,8.42627,32.95801   c-1.13867,3.14453-2.18896,6.33252-3.15479,9.57324c-5.05127-6.88965-9.74561-14.25684-13.91553-22.12402   c-3.35449-6.38672-5.3042-8.99023-6.12646-7.67725c-0.78174,1.27686-0.36523,6.48926,2.20996,14.70703   c3.60547,11.39697,8.29053,21.96387,13.72217,31.66797c-0.69043,3.48779-1.32129,6.99463-1.81348,10.55078   c-6.14893-6.06641-12.01807-12.66113-17.45557-19.83447c-4.32959-5.75635-6.68408-8.01514-7.28174-6.58545   c-0.55957,1.38037,0.68457,6.44238,4.53662,14.13525c5.40674,10.72607,11.7124,20.46582,18.62744,29.27295   c-0.13477,2.94971-0.20996,5.92383-0.20996,8.91748c0,0.57617,0.03076,1.14404,0.03564,1.72705   c-7.04053-5.08936-13.86816-10.73438-20.4082-16.99756c-5.19531-4.99951-7.84375-6.854-8.22119-5.36377   c-0.35205,1.44922,1.69482,6.23926,6.67188,13.22949c6.97607,9.73535,14.69043,18.41162,22.86475,26.05615   c0.35107,3.54102,0.81885,7.03809,1.36719,10.51025c-7.6958-3.92871-15.27832-8.45752-22.66455-13.63477   c-5.87109-4.15918-8.8042-5.5752-8.93555-4.04297c-0.11035,1.47461,2.59912,5.90332,8.59619,12.06396   c8.30762,8.49658,17.18701,15.82617,26.35986,22.05566c0.80322,3.17773,1.68652,6.31738,2.64746,9.40967   c-8.09375-2.67822-16.17139-5.96533-24.14502-9.9248c-6.42139-3.24023-9.5459-4.2124-9.44482-2.66797   c0.12451,1.48193,3.4668,5.46777,10.33643,10.65527c9.33936,7.02783,19.05322,12.82959,28.8916,17.50146   c1.375,3.31055,2.81348,6.59326,4.37451,9.7793c-8.20996-1.32275-16.50195-3.23828-24.79395-5.81787   c-6.8584-2.18359-10.10254-2.65137-9.75635-1.13916c0.36523,1.44434,4.2998,4.8623,11.91846,8.89551   c10.05176,5.28711,20.27295,9.35889,30.43359,12.31494c1.91992,3.14014,3.95947,6.17676,6.05811,9.16406   c-8.05615,0.03027-16.27881-0.50244-24.61865-1.66064c-7.12598-1.0293-10.42773-0.96094-9.81592,0.46826   c0.6001,1.37158,5.03223,4.12793,13.23682,6.854c10.41602,3.44531,20.81201,5.72266,30.96777,6.91553   c2.4375,2.84473,4.9502,5.61865,7.55664,8.26855c-7.57227,1.34766-15.41016,2.16064-23.4248,2.41553   c-7.23291,0.20801-10.43262,0.78564-9.60547,2.11963c0.80127,1.27051,5.70215,3.21826,14.25586,4.5127   c10.31543,1.52344,20.43457,1.98193,30.14063,1.44873c2.76514,2.30762,5.60986,4.49902,8.5166,6.60547   c-6.82373,2.47412-13.9668,4.53613-21.37646,6.08057c-7.09033,1.44434-10.16162,2.56787-9.10889,3.73877   c1.02197,1.11328,6.20801,2.21484,14.88379,1.99463c9.81006-0.28174,19.2334-1.56982,28.14844-3.64502   c3.49658,2.03223,7.0625,3.93457,10.70947,5.6709c-5.79053,3.41846-11.89941,6.5332-18.36572,9.23438   c-6.70508,2.75977-9.52783,4.43506-8.25732,5.39258c1.22363,0.89697,6.55713,1.03125,15.06152-0.86035   c8.84131-1.99316,17.13477-4.8208,24.89063-8.23633c14.89063,5.33105,30.76465,8.23926,47.25781,8.23926   c16.29053,0,31.97803-2.82959,46.70557-8.02881c7.625,3.30908,15.76514,6.07471,24.42773,8.02588   c8.50391,1.8916,13.83789,1.75732,15.06152,0.86035c1.27051-0.95752-1.55371-2.63281-8.25879-5.39258   c-6.29102-2.625-12.24512-5.65088-17.896-8.96484c3.73877-1.76074,7.39404-3.70752,10.97217-5.78223   c8.70752,1.97168,17.87256,3.20801,27.41748,3.48682c8.67725,0.22021,13.8623-0.88135,14.88232-1.99463   c1.05371-1.1709-2.01563-2.29443-9.1084-3.73877c-7.16748-1.49854-14.07227-3.48389-20.69971-5.84717   c3.01465-2.17432,5.96582-4.42383,8.82715-6.81934c9.4082,0.45264,19.18555,0.01025,29.15479-1.46826   c8.55225-1.29443,13.45508-3.24219,14.25537-4.5127c0.82715-1.33398-2.37256-1.91162-9.60498-2.11963   c-7.70654-0.24463-15.24121-1.02588-22.54346-2.28125c2.6875-2.72461,5.27344-5.57715,7.78223-8.51465   c9.7998-1.22754,19.82471-3.48682,29.85986-6.80371c8.20508-2.72607,12.63672-5.48242,13.23633-6.854   c0.61279-1.4292-2.68848-1.49756-9.81445-0.46826c-7.99463,1.10938-15.88574,1.66553-23.62158,1.67578   c2.17334-3.08789,4.27979-6.24268,6.25928-9.5c9.76709-2.93555,19.58008-6.91748,29.2334-11.99414   c7.62109-4.0332,11.55371-7.45117,11.91895-8.89551c0.34717-1.51221-2.89697-1.04443-9.75537,1.13916   c-7.92676,2.4624-15.85254,4.33643-23.70654,5.65674c1.62109-3.32568,3.11816-6.73877,4.53809-10.18994   c9.40918-4.57227,18.69385-10.20264,27.64063-16.92969c6.86963-5.1875,10.21191-9.17334,10.33594-10.65527   C434.1123,256.02246,430.98535,256.99463,424.56201,260.23486z" fill="url(#SVGID_5_)"/><g><g id="XMLID_285_"><g><path d="M201.18018,168.34668c0,2.98584-1.37012,5.62061-3.54785,7.3418      c-6.46387-1.26465-11.69824-5.83154-13.91113-11.87354c1.58057-2.8457,4.63672-4.77783,8.1499-4.77783      C197.03467,159.03711,201.18018,163.18262,201.18018,168.34668z" fill="#25B3B5"/><path d="M183.72119,163.81494c2.21289,6.04199,7.44727,10.60889,13.91113,11.87354      c-1.58105,1.22949-3.5835,1.96729-5.76123,1.96729c-5.16406,0-9.30957-4.14551-9.30957-9.30908      C182.56152,166.69531,182.9834,165.1499,183.72119,163.81494z" fill="#1B9393"/><path d="M182.56152,157.35107c0-0.24609,0-0.42139,0-0.66748c2.56445-2.0376,5.79639-3.26709,9.30957-3.26709      c8.25537,0,14.96484,6.6748,14.96484,14.93018c0,2.66943-0.70264,5.16357-1.93213,7.3418h-0.03516      c-1.19434,0.24609-2.38867,0.35107-3.61816,0.35107s-2.45898-0.10498-3.61816-0.35107      c2.17773-1.72119,3.54785-4.35596,3.54785-7.3418c0-5.16406-4.14551-9.30957-9.30908-9.30957      c-3.51318,0-6.56934,1.93213-8.1499,4.77783C182.9834,161.8125,182.56152,159.63428,182.56152,157.35107z" fill="#FFFFFF"/><path d="M191.87109,183.27637c-8.22021,0-14.93018-6.6748-14.93018-14.92969      c0-4.70752,2.17822-8.92285,5.62061-11.66309c0,0.24609,0,0.42139,0,0.66748c0,2.2832,0.42188,4.46143,1.15967,6.46387      c-0.73779,1.33496-1.15967,2.88037-1.15967,4.53174c0,5.16357,4.14551,9.30908,9.30957,9.30908      c2.17773,0,4.18018-0.73779,5.76123-1.96729c1.15918,0.24609,2.38867,0.35107,3.61816,0.35107s2.42383-0.10498,3.61816-0.35107      C202.33936,180.22021,197.45654,183.27637,191.87109,183.27637z" fill="#D9E8E8"/><path d="M176.94092,168.34668c0,8.25488,6.70996,14.92969,14.93018,14.92969      c5.58545,0,10.46826-3.05615,12.99756-7.58789h0.03516c1.22949-2.17822,1.93213-4.67236,1.93213-7.3418      c0-8.25537-6.70947-14.93018-14.96484-14.93018c-3.51318,0-6.74512,1.22949-9.30957,3.26709      C179.11914,159.42383,176.94092,163.63916,176.94092,168.34668z M223.34668,206.91797      c-33.19727,0-60.10596-26.90869-60.10596-60.17578c0-0.87842,0-1.75635,0.03516-2.59961      c7.97412-12.50586,21.99072-20.79639,37.9043-20.79639c24.83643,0,45.03564,20.16406,45.03564,45.00049      c0,16.37012-8.74756,30.70264-21.85059,38.57129h-0.03516C224.01416,206.91797,223.73291,206.91797,223.34668,206.91797z" fill="#F9D9C0"/><path d="M156.17969,168.34668c0-8.92285,2.59961-17.21338,7.09619-24.2041      c-0.03516,0.84326-0.03516,1.72119-0.03516,2.59961c0,33.26709,26.90869,60.17578,60.10596,60.17578      c0.38623,0,0.66748,0,0.9834,0c-6.74463,4.0752-14.68408,6.42871-23.1499,6.42871      C176.37891,213.34668,156.17969,193.18262,156.17969,168.34668z" fill="#E2BBA1"/><path d="M163.27588,144.14258c-4.49658,6.99072-7.09619,15.28125-7.09619,24.2041      c0,24.83594,20.19922,45,45.00049,45c8.46582,0,16.40527-2.35352,23.1499-6.42871h0.03516      c13.10303-7.86865,21.85059-22.20117,21.85059-38.57129c0-24.83643-20.19922-45.00049-45.03564-45.00049      C185.2666,123.34619,171.25,131.63672,163.27588,144.14258z M254.57617,168.34668c0,29.40283-23.99316,53.36084-53.396,53.36084      S147.854,197.74951,147.854,168.34668c0-29.40332,23.92334-53.36133,53.32617-53.36133S254.57617,138.94336,254.57617,168.34668      z" fill="#30630F"/></g></g></g><g><g id="XMLID_287_"><g><path d="M360.3042,239.81396c0,2.37646-0.24365,4.69238-0.60938,6.88623h-0.06104      c-2.80322-8.89746-9.01953-20.59863-16.1499-25.83984c-4.32715-3.16895-8.47119-5.05859-12.43262-5.91162      c0-5.05811,0-8.53223,0-9.1416c3.96143,0.85352,8.10547,2.74268,12.43262,5.91162      C351.22363,217.38672,357.92773,230.79395,360.3042,239.81396z" fill="#9D9D9C"/><path d="M331.05127,251.51514h-0.06055c0.06055-0.91455,0.06055-1.82861,0.06055-2.74268      c0-11.15283,0-24.92578,0-33.82373c3.96143,0.85303,8.10547,2.74268,12.43262,5.91162      c7.13037,5.24121,13.34668,16.94238,16.1499,25.83984h0.06104c-1.88916,9.56836-7.67871,17.12549-16.57666,17.12549      C332.14844,263.82568,331.05127,251.51514,331.05127,251.51514z" fill="#DADADA"/><path d="M331.05127,214.94873c0,8.89795,0,22.6709,0,33.82373c0,0.91406,0,1.82813-0.06055,2.74268      c-0.24414,17.30762-3.41309,35.10352-17.49121,35.10352c-14.80908,0-15.90625-16.45508-15.90625-16.45508      c0-8.53223,0-27.36377,0-38.69922C307.03955,220.00684,318.19238,212.02344,331.05127,214.94873z" fill="#FFFFFF"/><path d="M297.59326,222.32275c9.44629-11.45703,20.59912-19.44092,33.45801-16.51563      c0,0.60938,0,4.0835,0,9.1416c-12.85889-2.92529-24.01172,5.05811-33.45801,16.51563      C297.59326,226.04053,297.59326,222.32275,297.59326,222.32275z" fill="#9D9D9C"/><path d="M297.59326,231.46436c0,11.33545,0,30.16699,0,38.69922c0,12.61523-3.29102,35.10352-15.90625,35.10352      c-12.24951,0-16.02783-12.37158-16.27197-13.10303c0-0.06055,0-0.06055,0-0.06055c0.12207-3.29102,0.06104-6.39941,0-9.02002      c2.1333-2.86426,4.14453-5.91113,6.03369-9.14111C277.84766,262.97217,286.5625,244.81104,297.59326,231.46436z" fill="#DADADA"/><path d="M297.59326,231.46436c-11.03076,13.34668-19.74561,31.50781-26.14453,42.47803      c-1.88916,3.22998-3.90039,6.27686-6.03369,9.14111c-0.18262-5.05811-0.4873-8.53174-0.4873-8.53174      c2.31592-3.04736,4.50977-6.33838,6.521-9.75098c6.39893-10.97021,15.11377-29.13135,26.14453-42.47803      C297.59326,222.32275,297.59326,226.04053,297.59326,231.46436z" fill="#9D9D9C"/><path d="M240.36719,304.71875c10.05566-5.11914,18.22217-12.49365,25.04785-21.63525      c0.06104,2.62061,0.12207,5.729,0,9.02002c0,0,0,0,0,0.06055c-0.30469,12.79834-2.37646,27.9126-10.604,27.9126      C246.27881,320.07666,242.25684,311.54443,240.36719,304.71875z" fill="#FFFFFF"/><path d="M238.84375,296.24756c10.48242-4.99756,19.0752-12.37158,26.08398-21.6958      c0,0,0.30469,3.47363,0.4873,8.53174c-6.82568,9.1416-14.99219,16.51611-25.04785,21.63525      c-1.21875-4.5708-1.52344-8.41016-1.52344-8.41016V296.24756z" fill="#9D9D9C"/><path d="M360.3042,239.81396c4.20508,16.1499-0.42627,33.57959-8.65381,48.51074      c-1.15771,1.52393-2.31592,3.04736-3.53467,4.44922c-17.00342,20.41602-44.67188,34.18896-70.81641,38.57715      c-29.80176,4.99756-67.52539-1.09717-91.59814-20.59912c-2.31592-1.88916-4.69287-4.08301-7.00879-6.58154      c15.60156,3.59521,34.61621,0.36523,49.6084-3.96143c3.71729-1.03613,7.25195-2.37695,10.54297-3.96143v0.06104      c0,0,0.30469,3.83936,1.52344,8.41016c1.88965,6.82568,5.91162,15.35791,14.44385,15.35791      c8.22754,0,10.29932-15.11426,10.604-27.9126c0.24414,0.73145,4.02246,13.10303,16.27197,13.10303      c12.61523,0,15.90625-22.48828,15.90625-35.10352c0,0,1.09717,16.45508,15.90625,16.45508      c14.07813,0,17.24707-17.7959,17.49121-35.10352h0.06055c0,0,1.09717,12.31055,12.06689,12.31055      c8.89795,0,14.6875-7.55713,16.57666-17.12549C360.06055,244.50635,360.3042,242.19043,360.3042,239.81396z" fill="#1D1D1B"/><path d="M185.70117,310.75195c24.07275,19.50195,61.79639,25.59668,91.59814,20.59912      c26.14453-4.38818,53.81299-18.16113,70.81641-38.57715c1.21875-1.40186,2.37695-2.92529,3.53467-4.44922      c-3.29102,6.03369-7.19141,11.70117-11.33545,16.6377c-16.33301,19.62402-42.84326,32.7876-67.95215,36.99268      c-28.58252,4.81445-64.72217-0.9751-87.81982-19.74561c-6.94727-5.60693-14.87012-14.56543-16.57666-23.8291      c0.60938,3.22998,8.22754,5.24121,10.60449,5.79004c0.06055,0,0.06055,0,0.12158,0      C181.0083,306.66895,183.38525,308.86279,185.70117,310.75195z" fill="#B7240B"/></g></g></g><g><g id="XMLID_286_"><g><path d="M311.03271,166.34473c0,2.98584,1.40527,5.62061,3.58301,7.3418      c6.42871-1.26465,11.69824-5.83105,13.91113-11.87354c-1.58057-2.84521-4.63721-4.77734-8.1499-4.77734      C315.21289,157.03564,311.03271,161.18066,311.03271,166.34473z" fill="#25B3B5"/><path d="M329.68604,166.34473c0-1.65088-0.42139-3.19678-1.15918-4.53174      c-2.21289,6.04248-7.48242,10.60889-13.91113,11.87354c1.58105,1.22949,3.5835,1.96729,5.76123,1.96729      C325.50586,175.65381,329.68604,171.50879,329.68604,166.34473z" fill="#1B9393"/><path d="M320.37695,151.41504c-8.25537,0-14.96484,6.67432-14.96484,14.92969      c0,2.66992,0.70264,5.16406,1.93213,7.3418h0.03516c1.19434,0.24609,2.35352,0.35156,3.61816,0.35156      c1.22949,0,2.45898-0.10547,3.61816-0.35156c-2.17773-1.72119-3.58301-4.35596-3.58301-7.3418      c0-5.16406,4.18018-9.30908,9.34424-9.30908c3.5127,0,6.56934,1.93213,8.1499,4.77734      c0.73779-2.00244,1.15918-4.18018,1.15918-6.46387c0-0.24561,0-0.42139,0-0.66748      C327.12158,152.64453,323.88965,151.41504,320.37695,151.41504z" fill="#FFFFFF"/><path d="M320.37695,181.27441c8.22021,0,14.92969-6.67432,14.92969-14.92969      c0-4.70752-2.17773-8.92285-5.62061-11.66309c0,0.24609,0,0.42188,0,0.66748c0,2.28369-0.42139,4.46143-1.15918,6.46387      c0.73779,1.33496,1.15918,2.88086,1.15918,4.53174c0,5.16406-4.18018,9.30908-9.30908,9.30908      c-2.17773,0-4.18018-0.73779-5.76123-1.96729c-1.15918,0.24609-2.38867,0.35156-3.61816,0.35156      c-1.26465,0-2.42383-0.10547-3.61816-0.35156C309.90869,178.21826,314.7915,181.27441,320.37695,181.27441z" fill="#D9E8E8"/><path d="M335.30664,166.34473c0,8.25537-6.70947,14.92969-14.92969,14.92969      c-5.58545,0-10.46826-3.05615-12.99756-7.58789h-0.03516c-1.22949-2.17773-1.93213-4.67188-1.93213-7.3418      c0-8.25537,6.70947-14.92969,14.96484-14.92969c3.5127,0,6.74463,1.22949,9.30908,3.2666      C333.12891,157.42188,335.30664,161.63721,335.30664,166.34473z M288.86621,204.9165      c33.23193,0,60.14111-26.90918,60.14111-60.17627c0-0.87793,0-1.75635-0.03516-2.59961      c-8.00977-12.50586-22.02588-20.79639-37.93945-20.79639c-24.80127,0-45.00049,20.16406-45.00049,45.00049      c0,16.37012,8.78223,30.70264,21.88525,38.57178C288.23389,204.9165,288.5498,204.9165,288.86621,204.9165z" fill="#F9D9C0"/><path d="M356.06836,166.34473c0-8.92285-2.59961-17.21338-7.09619-24.2041      c0.03516,0.84326,0.03516,1.72168,0.03516,2.59961c0,33.26709-26.90918,60.17627-60.14111,60.17627      c-0.31641,0-0.63232,0-0.94873,0c6.74512,4.07471,14.64893,6.42871,23.11523,6.42871      C335.86914,211.34521,356.06836,191.18115,356.06836,166.34473z" fill="#E2BBA1"/><path d="M287.91748,204.9165c-13.10303-7.86914-21.88525-22.20166-21.88525-38.57178      c0-24.83643,20.19922-45.00049,45.00049-45.00049c15.91357,0,29.92969,8.29053,37.93945,20.79639      c4.49658,6.99072,7.09619,15.28125,7.09619,24.2041c0,24.83643-20.19922,45.00049-45.03564,45.00049      C302.56641,211.34521,294.6626,208.99121,287.91748,204.9165z M257.67139,166.34473      c0,29.40283,23.95801,53.36084,53.36133,53.36084c29.43799,0,53.36084-23.95801,53.36084-53.36084      s-23.92285-53.36084-53.36084-53.36084C281.62939,112.98389,257.67139,136.94189,257.67139,166.34473z" fill="#30630F"/></g></g></g></g></svg>